<?xml version="1.0" encoding="UTF-8"?>
<svg id="Capa_1" data-name="Capa 1" xmlns="http://www.w3.org/2000/svg" xmlns:xlink="http://www.w3.org/1999/xlink" viewBox="0 0 16 16">
  <defs>
    <style>
      .cls-1 {
        fill: url(#Degradado_sin_nombre_53);
      }

      .cls-2 {
        fill: url(#Degradado_sin_nombre_129);
      }

      .cls-3 {
        fill: url(#Degradado_sin_nombre_116);
      }

      .cls-4 {
        fill: url(#Degradado_sin_nombre_121);
      }

      .cls-5 {
        fill: url(#Degradado_sin_nombre_125);
      }

      .cls-6 {
        fill: #b8860b;
      }

      .cls-7 {
        fill: url(#Degradado_sin_nombre_74);
      }

      .cls-8 {
        fill: url(#Degradado_sin_nombre_53-2);
      }

      .cls-9 {
        fill: url(#Degradado_sin_nombre_110);
      }

      .cls-10 {
        fill: url(#Degradado_sin_nombre_74-2);
      }

      .cls-11 {
        fill: #2a2838;
      }
    </style>
    <linearGradient id="Degradado_sin_nombre_74" data-name="Degradado sin nombre 74" x1="2.3" y1="7.87" x2="13.7" y2="7.87" gradientUnits="userSpaceOnUse">
      <stop offset="0" stop-color="#aa771c"/>
      <stop offset=".5" stop-color="gold"/>
      <stop offset="1" stop-color="#b8860b"/>
    </linearGradient>
    <linearGradient id="Degradado_sin_nombre_53" data-name="Degradado sin nombre 53" x1="4.06" y1="4.59" x2="12.15" y2="4.59" gradientUnits="userSpaceOnUse">
      <stop offset="0" stop-color="#aa771c"/>
      <stop offset=".04" stop-color="#ae7c1b"/>
      <stop offset=".5" stop-color="gold"/>
      <stop offset="1" stop-color="#b8860b"/>
    </linearGradient>
    <linearGradient id="Degradado_sin_nombre_74-2" data-name="Degradado sin nombre 74" x1="2.22" y1="7.87" x2="13.62" y2="7.87" xlink:href="#Degradado_sin_nombre_74"/>
    <linearGradient id="Degradado_sin_nombre_53-2" data-name="Degradado sin nombre 53" x1="3.85" y1="11.38" x2="12.15" y2="11.38" xlink:href="#Degradado_sin_nombre_53"/>
    <radialGradient id="Degradado_sin_nombre_110" data-name="Degradado sin nombre 110" cx="8" cy="8" fx="8" fy="8" r=".55" gradientUnits="userSpaceOnUse">
      <stop offset="0" stop-color="#c77dff"/>
      <stop offset="1" stop-color="#7b2cbf"/>
    </radialGradient>
    <radialGradient id="Degradado_sin_nombre_129" data-name="Degradado sin nombre 129" cx="8" cy="13.36" fx="8" fy="13.36" r=".94" gradientUnits="userSpaceOnUse">
      <stop offset="0" stop-color="#c77dff"/>
      <stop offset="1" stop-color="#7b2cbf"/>
    </radialGradient>
    <radialGradient id="Degradado_sin_nombre_116" data-name="Degradado sin nombre 116" cx="9026.6" cy="1189.2" fx="9026.6" fy="1189.2" r=".94" gradientTransform="translate(9034.6 1191.85) rotate(-180)" gradientUnits="userSpaceOnUse">
      <stop offset="0" stop-color="#c77dff"/>
      <stop offset="1" stop-color="#7b2cbf"/>
    </radialGradient>
    <radialGradient id="Degradado_sin_nombre_121" data-name="Degradado sin nombre 121" cx="13.36" cy="7.94" fx="13.36" fy="7.94" r=".94" gradientUnits="userSpaceOnUse">
      <stop offset="0" stop-color="#c77dff"/>
      <stop offset="1" stop-color="#7b2cbf"/>
    </radialGradient>
    <radialGradient id="Degradado_sin_nombre_125" data-name="Degradado sin nombre 125" cx="2.64" cy="7.94" fx="2.64" fy="7.94" r=".94" gradientUnits="userSpaceOnUse">
      <stop offset="0" stop-color="#c77dff"/>
      <stop offset="1" stop-color="#7b2cbf"/>
    </radialGradient>
  </defs>
  <rect class="cls-11" x="0" y="0" width="16" height="16" rx="8" ry="8"/>
  <g>
    <g>
      <g>
        <path class="cls-7" d="m7.18,8.55s-.01-.02-.02-.03c-.01-.02-.03-.04-.04-.07,0,0,0-.02-.01-.03,0-.01-.01-.02-.01-.03,0,0,0-.02-.01-.03,0,0,0,0,0,0,0,0,0-.02,0-.02,0-.03-.02-.05-.02-.08,0,0,0-.02,0-.03,0,0,0-.02,0-.03,0,0,0-.01,0-.02,0-.02,0-.04,0-.07,0-.01,0-.02,0-.03h0s0-.03,0-.04c0-.01,0-.02,0-.04v-.02s0,0,0,0c0,0,0-.02,0-.03,0-.02,0-.03,0-.05,0,0,0-.02,0-.02,0,0,0-.02,0-.02,0-.02,0-.05.01-.07,0,0,0-.02,0-.02,0,0,0-.02,0-.02,0-.02,0-.03.01-.05,0,0,0-.02,0-.02,0,0,0,0,0,0,0-.01.01-.03.02-.04,0-.02.02-.04.03-.07,0,0,0-.01.01-.02,0,0,0,0,0,0-.83-.49-2.07-1.33-2.64-2.33-.26-.46-.42-.86-.5-1.21-.85-.18-1.4.14-1.72.7-.45.78-.28,1.73,1.3,2.63.73.42,1.74.59,2.6.65-.82.02-1.74.13-2.44.47-1.64.79-1.87,1.72-1.48,2.53.28.58.8.94,1.67.82.1-.34.28-.73.58-1.17.61-.9,1.8-1.63,2.67-2.07Z"/>
        <path class="cls-1" d="m7.54,7.13s0,0,.01,0c0,0,.01,0,.02-.01h.02s.01-.02.02-.02c.01,0,.03-.01.04-.02,0,0,.02,0,.02,0,.02,0,.05-.01.07-.02.02,0,.03,0,.05-.01,0,0,.02,0,.02,0,0,0,.02,0,.02,0,0,0,0,0,0,0,0,0,.02,0,.02,0,0,0,.02,0,.02,0,.01,0,.03,0,.05,0,.01,0,.02,0,.03,0,0,0,0,0,0,0,0,0,.01,0,.02,0s.01,0,.02,0c0,0,0,0,0,0,.01,0,.02,0,.03,0,.02,0,.03,0,.05,0,0,0,.02,0,.02,0,0,0,.02,0,.02,0,0,0,0,0,0,0,0,0,.02,0,.02,0,0,0,.02,0,.02,0,.02,0,.03,0,.05.01.02,0,.05.01.07.02,0,0,.02,0,.02,0,.01,0,.03.01.04.02,0,0,.01,0,.02,0h.02s.01.02.02.02c0,0,0,0,.01,0,.49-.84,1.34-2.07,2.33-2.64.46-.26.86-.42,1.21-.5.18-.85-.14-1.4-.7-1.72-.78-.45-1.73-.28-2.63,1.3-.46.8-.62,1.92-.67,2.84-.05-.91-.21-2.04-.67-2.84-.91-1.58-1.85-1.75-2.63-1.3-.56.32-.88.87-.7,1.72.35.07.75.23,1.21.5.99.57,1.84,1.81,2.33,2.64Z"/>
        <path class="cls-10" d="m12.25,8.44c-.7-.34-1.62-.45-2.44-.47.87-.06,1.87-.23,2.6-.65,1.58-.91,1.75-1.85,1.3-2.63-.32-.56-.87-.88-1.72-.7-.07.35-.23.75-.5,1.21-.57.99-1.8,1.84-2.64,2.33,0,0,0,.02.01.03,0,0,0,0,0,0,0,.02.02.03.02.05,0,0,0,.02.01.03,0,0,0,.02.01.03,0,0,0,.02.01.03,0,.02.01.04.02.06,0,0,0,.02,0,.03,0,0,0,.02,0,.03,0,0,0,.02,0,.03,0,0,0,.01,0,.02,0,0,0,.01,0,.02,0,0,0,.01,0,.02,0,0,0,0,0,.01,0,0,0,.02,0,.03,0,0,0,0,0,0,0,.02,0,.04,0,.06,0,0,0,.01,0,.02,0,.01,0,.03,0,.04,0,.01,0,.02,0,.04h0s0,.02,0,.03c0,0,0,.01,0,.02,0,0,0,.02,0,.03,0,.01,0,.02,0,.03,0,.01,0,.02,0,.04,0,.01,0,.02,0,.04,0,.01,0,.02,0,.03,0,.01,0,.02-.01.03-.01.03-.03.07-.04.1-.01.02-.02.04-.03.06-.01.02-.02.04-.04.06,0,0,0,0,0,0,.86.44,2.06,1.17,2.67,2.07.29.44.48.83.58,1.17.86.12,1.39-.24,1.67-.82.39-.81.16-1.74-1.48-2.53Z"/>
        <path class="cls-8" d="m8.34,8.93s0,0,0,0c0,0-.01,0-.02,0,0,0-.01,0-.02,0-.02,0-.03,0-.05.01-.02,0-.03,0-.05.01-.02,0-.03,0-.05,0-.01,0-.02,0-.04,0-.01,0-.02,0-.03,0,0,0,0,0-.01,0,0,0,0,0,0,0,0,0-.02,0-.03,0h0s-.02,0-.04,0-.03,0-.04,0h0s-.02,0-.03,0c0,0,0,0-.01,0-.01,0-.02,0-.03,0-.01,0-.03,0-.04,0-.02,0-.03,0-.05,0-.02,0-.03,0-.05-.01-.01,0-.02,0-.03,0,0,0,0,0-.01,0,0,0-.01,0-.02,0,0,0-.01,0-.02,0,0,0,0,0,0,0-.55.8-1.47,1.95-2.49,2.45-.47.23-.88.36-1.24.41-.24.84.05,1.41.58,1.76.75.5,1.7.4,2.71-1.11.4-.6.64-1.42.77-2.18.13.76.37,1.58.77,2.18,1.01,1.51,1.97,1.61,2.71,1.11.53-.36.82-.93.58-1.76-.35-.05-.76-.18-1.24-.41-1.02-.5-1.94-1.65-2.49-2.45Z"/>
      </g>
      <circle class="cls-9" cx="8" cy="8" r=".55"/>
    </g>
    <path class="cls-6" d="m8.25,14.01l-.25.63-.25-.63c-.17-.42-.17-.89,0-1.31l.25-.63.25.63c.17.42.17.89,0,1.31Z"/>
    <path class="cls-6" d="m14.01,7.69l.63.25-.63.25c-.42.17-.89.17-1.31,0l-.63-.25.63-.25c.42-.17.89-.17,1.31,0Z"/>
    <path class="cls-6" d="m7.75,1.99l.25-.63.25.63c.17.42.17.89,0,1.31l-.25.63-.25-.63c-.17-.42-.17-.89,0-1.31Z"/>
    <path class="cls-2" d="m7.75,12.7l.25-.63.25.63c.17.42.17.89,0,1.31l-.25.63-.25-.63c-.17-.42-.17-.89,0-1.31Z"/>
    <path class="cls-3" d="m8.25,3.3l-.25.63-.25-.63c-.17-.42-.17-.89,0-1.31l.25-.63.25.63c.17.42.17.89,0,1.31Z"/>
    <path class="cls-6" d="m1.99,8.19l-.63-.25.63-.25c.42-.17.89-.17,1.31,0l.63.25-.63.25c-.42.17-.89.17-1.31,0Z"/>
    <path class="cls-4" d="m14.01,7.69l.63.25-.63.25c-.42.17-.89.17-1.31,0l-.63-.25.63-.25c.42-.17.89-.17,1.31,0Z"/>
    <path class="cls-5" d="m3.3,7.69l.63.25-.63.25c-.42.17-.89.17-1.31,0l-.63-.25.63-.25c.42-.17.89-.17,1.31,0Z"/>
  </g>
</svg>