<?xml version="1.0" encoding="UTF-8"?>
<svg id="Capa_1" data-name="Capa 1" xmlns="http://www.w3.org/2000/svg" xmlns:xlink="http://www.w3.org/1999/xlink" viewBox="0 0 32 32">
  <defs>
    <style>
      .cls-1 {
        fill: url(#Degradado_sin_nombre_53);
      }

      .cls-2 {
        fill: url(#Degradado_sin_nombre_129);
      }

      .cls-3 {
        fill: url(#Degradado_sin_nombre_116);
      }

      .cls-4 {
        fill: url(#Degradado_sin_nombre_121);
      }

      .cls-5 {
        fill: url(#Degradado_sin_nombre_125);
      }

      .cls-6 {
        fill: #b8860b;
      }

      .cls-7 {
        fill: url(#Degradado_sin_nombre_74);
      }

      .cls-8 {
        fill: url(#Degradado_sin_nombre_53-2);
      }

      .cls-9 {
        fill: url(#Degradado_sin_nombre_110);
      }

      .cls-10 {
        fill: url(#Degradado_sin_nombre_74-2);
      }

      .cls-11 {
        fill: #2a2838;
      }
    </style>
    <linearGradient id="Degradado_sin_nombre_74" data-name="Degradado sin nombre 74" x1="4.6" y1="15.75" x2="27.41" y2="15.75" gradientUnits="userSpaceOnUse">
      <stop offset="0" stop-color="#aa771c"/>
      <stop offset=".5" stop-color="gold"/>
      <stop offset="1" stop-color="#b8860b"/>
    </linearGradient>
    <linearGradient id="Degradado_sin_nombre_53" data-name="Degradado sin nombre 53" x1="8.12" y1="9.18" x2="24.3" y2="9.18" gradientUnits="userSpaceOnUse">
      <stop offset="0" stop-color="#aa771c"/>
      <stop offset=".04" stop-color="#ae7c1b"/>
      <stop offset=".5" stop-color="gold"/>
      <stop offset="1" stop-color="#b8860b"/>
    </linearGradient>
    <linearGradient id="Degradado_sin_nombre_74-2" data-name="Degradado sin nombre 74" x1="4.44" y1="15.75" x2="27.25" y2="15.75" xlink:href="#Degradado_sin_nombre_74"/>
    <linearGradient id="Degradado_sin_nombre_53-2" data-name="Degradado sin nombre 53" x1="7.7" y1="22.75" x2="24.3" y2="22.75" xlink:href="#Degradado_sin_nombre_53"/>
    <radialGradient id="Degradado_sin_nombre_110" data-name="Degradado sin nombre 110" cx="16" cy="16" fx="16" fy="16" r="1.1" gradientUnits="userSpaceOnUse">
      <stop offset="0" stop-color="#c77dff"/>
      <stop offset="1" stop-color="#7b2cbf"/>
    </radialGradient>
    <radialGradient id="Degradado_sin_nombre_129" data-name="Degradado sin nombre 129" cx="16" cy="26.72" fx="16" fy="26.72" r="1.89" gradientUnits="userSpaceOnUse">
      <stop offset="0" stop-color="#c77dff"/>
      <stop offset="1" stop-color="#7b2cbf"/>
    </radialGradient>
    <radialGradient id="Degradado_sin_nombre_116" data-name="Degradado sin nombre 116" cx="9163.28" cy="1202.56" fx="9163.28" fy="1202.56" r="1.89" gradientTransform="translate(9179.28 1207.85) rotate(-180)" gradientUnits="userSpaceOnUse">
      <stop offset="0" stop-color="#c77dff"/>
      <stop offset="1" stop-color="#7b2cbf"/>
    </radialGradient>
    <radialGradient id="Degradado_sin_nombre_121" data-name="Degradado sin nombre 121" cx="26.72" cy="15.88" fx="26.72" fy="15.88" r="1.89" gradientUnits="userSpaceOnUse">
      <stop offset="0" stop-color="#c77dff"/>
      <stop offset="1" stop-color="#7b2cbf"/>
    </radialGradient>
    <radialGradient id="Degradado_sin_nombre_125" data-name="Degradado sin nombre 125" cx="5.28" cy="15.88" fx="5.28" fy="15.88" r="1.89" gradientUnits="userSpaceOnUse">
      <stop offset="0" stop-color="#c77dff"/>
      <stop offset="1" stop-color="#7b2cbf"/>
    </radialGradient>
  </defs>
  <rect class="cls-11" x="0" y="0" width="32" height="32" rx="16" ry="16"/>
  <g>
    <g>
      <g>
        <path class="cls-7" d="m14.36,17.09s-.03-.04-.04-.06c-.03-.04-.05-.09-.08-.13,0-.02-.02-.03-.03-.05-.01-.02-.02-.04-.03-.06,0-.02-.02-.04-.02-.06,0,0,0,0,0-.01,0-.02-.01-.03-.02-.05-.02-.05-.03-.1-.05-.15,0-.02-.01-.04-.02-.06,0-.02,0-.04-.01-.06,0-.01,0-.02,0-.04,0-.04-.01-.09-.02-.14,0-.02,0-.04,0-.06h0s0-.05,0-.08c0-.02,0-.05,0-.07v-.03s0,0,0-.01c0-.02,0-.04,0-.06,0-.03,0-.07,0-.1,0-.02,0-.03,0-.05,0-.02,0-.03,0-.05,0-.05.02-.1.03-.15,0-.02,0-.03.01-.05,0-.02,0-.03.01-.05,0-.03.02-.06.03-.09,0-.02.01-.03.02-.05,0,0,0,0,0-.01,0-.03.02-.05.03-.08.02-.04.04-.09.06-.13,0-.01.01-.03.02-.04,0,0,0-.01,0-.02-1.67-.98-4.14-2.67-5.28-4.65-.53-.91-.84-1.71-.99-2.41-1.71-.36-2.8.29-3.44,1.4-.9,1.57-.56,3.45,2.59,5.26,1.47.84,3.47,1.18,5.2,1.3-1.64.03-3.47.25-4.88.93-3.27,1.59-3.74,3.44-2.96,5.07.56,1.15,1.6,1.88,3.33,1.64.2-.69.57-1.46,1.16-2.34,1.21-1.81,3.61-3.27,5.33-4.15Z"/>
        <path class="cls-1" d="m15.08,14.26s.01,0,.02-.01c.01,0,.03-.01.04-.02l.04-.02s.03-.01.04-.02c.03-.01.06-.02.09-.04.01,0,.03-.01.05-.02.05-.02.09-.03.14-.04.03,0,.06-.02.1-.02.02,0,.03,0,.05,0,.02,0,.03,0,.05,0,0,0,0,0,0,0,.02,0,.03,0,.05,0,.02,0,.03,0,.05,0,.03,0,.06,0,.09,0,.02,0,.04,0,.07,0,0,0,0,0,.01,0,.01,0,.02,0,.03,0s.02,0,.03,0c0,0,0,0,.01,0,.02,0,.04,0,.07,0,.03,0,.06,0,.09,0,.02,0,.03,0,.05,0,.02,0,.03,0,.05,0,0,0,0,0,0,0,.02,0,.03,0,.05,0,.02,0,.03,0,.05,0,.03,0,.06.01.1.02.05.01.09.03.14.04.01,0,.03.01.05.02.03.01.06.02.09.04.01,0,.03.01.04.02l.04.02s.03.01.04.02c0,0,.01,0,.02.01.98-1.67,2.67-4.15,4.66-5.29.91-.53,1.71-.84,2.41-.99.36-1.71-.29-2.8-1.4-3.44-1.57-.9-3.45-.56-5.26,2.6-.92,1.6-1.24,3.85-1.33,5.67-.09-1.83-.41-4.07-1.33-5.67-1.81-3.15-3.7-3.49-5.26-2.6-1.11.64-1.76,1.73-1.4,3.44.7.15,1.5.47,2.41.99,1.99,1.14,3.68,3.62,4.66,5.29Z"/>
        <path class="cls-10" d="m24.51,16.87c-1.4-.68-3.24-.9-4.88-.93,1.73-.12,3.74-.46,5.2-1.3,3.15-1.81,3.49-3.7,2.6-5.26-.64-1.11-1.73-1.76-3.44-1.4-.15.7-.47,1.5-.99,2.41-1.14,1.99-3.61,3.68-5.28,4.65,0,.02.02.03.03.05,0,0,0,0,0,0,.02.03.03.07.05.1,0,.02.02.04.02.05,0,.02.01.04.02.06,0,.02.01.04.02.06.01.04.03.08.04.12,0,.02,0,.04.01.05,0,.02,0,.04.01.06,0,.02,0,.04.01.05,0,.01,0,.02,0,.03,0,.01,0,.03,0,.04,0,.01,0,.02,0,.03,0,0,0,.02,0,.03,0,.02,0,.04,0,.06,0,0,0,0,0,0,0,.04,0,.08,0,.12,0,.01,0,.02,0,.03,0,.03,0,.05,0,.07,0,.03,0,.05,0,.07h0s0,.04,0,.07c0,.01,0,.02,0,.03,0,.02,0,.04,0,.05,0,.02,0,.05-.01.07,0,.02,0,.05-.01.07,0,.02-.01.05-.02.07,0,.02-.01.05-.02.07,0,.02-.01.05-.02.07-.02.07-.05.13-.08.2-.02.04-.04.08-.07.13-.02.04-.05.08-.07.12,0,0,0,0,0,0,1.72.88,4.12,2.34,5.33,4.15.59.88.96,1.65,1.16,2.34,1.73.24,2.77-.48,3.33-1.64.79-1.63.31-3.48-2.96-5.07Z"/>
        <path class="cls-8" d="m16.67,17.85s0,0,0,0c-.01,0-.03.01-.04.02-.01,0-.03,0-.04.01-.03,0-.06.02-.09.03-.03,0-.06.01-.09.02-.03,0-.06.01-.09.02-.02,0-.05,0-.07.01-.02,0-.04,0-.06,0,0,0-.02,0-.02,0,0,0,0,0-.01,0-.02,0-.03,0-.05,0h0s-.05,0-.07,0-.05,0-.07,0h0s-.04,0-.06,0c0,0-.02,0-.03,0-.02,0-.04,0-.06,0-.03,0-.05,0-.07-.01-.03,0-.06-.01-.09-.02-.03,0-.06-.01-.09-.02-.02,0-.04-.01-.07-.02,0,0-.02,0-.03,0-.01,0-.03,0-.04-.01-.01,0-.03-.01-.04-.02,0,0,0,0,0,0-1.1,1.6-2.94,3.91-4.98,4.9-.95.46-1.77.72-2.48.82-.48,1.68.09,2.81,1.16,3.53,1.5,1.01,3.4.8,5.43-2.22.81-1.21,1.28-2.84,1.55-4.36.27,1.53.74,3.16,1.55,4.36,2.03,3.02,3.93,3.23,5.43,2.22,1.06-.71,1.64-1.85,1.16-3.53-.71-.1-1.53-.36-2.48-.82-2.04-.99-3.89-3.3-4.98-4.9Z"/>
      </g>
      <circle class="cls-9" cx="16" cy="16" r="1.1"/>
    </g>
    <path class="cls-6" d="m16.5,28.03l-.5,1.25-.5-1.25c-.34-.84-.34-1.78,0-2.62l.5-1.25.5,1.25c.34.84.34,1.78,0,2.62Z"/>
    <path class="cls-6" d="m28.03,15.37l1.25.5-1.25.5c-.84.34-1.78.34-2.62,0l-1.25-.5,1.25-.5c.84-.34,1.78-.34,2.62,0Z"/>
    <path class="cls-6" d="m15.5,3.97l.5-1.25.5,1.25c.34.84.34,1.78,0,2.62l-.5,1.25-.5-1.25c-.34-.84-.34-1.78,0-2.62Z"/>
    <path class="cls-2" d="m15.5,25.41l.5-1.25.5,1.25c.34.84.34,1.78,0,2.62l-.5,1.25-.5-1.25c-.34-.84-.34-1.78,0-2.62Z"/>
    <path class="cls-3" d="m16.5,6.59l-.5,1.25-.5-1.25c-.34-.84-.34-1.78,0-2.62l.5-1.25.5,1.25c.34.84.34,1.78,0,2.62Z"/>
    <path class="cls-6" d="m3.97,16.38l-1.25-.5,1.25-.5c.84-.34,1.78-.34,2.62,0l1.25.5-1.25.5c-.84.34-1.78.34-2.62,0Z"/>
    <path class="cls-4" d="m28.03,15.37l1.25.5-1.25.5c-.84.34-1.78.34-2.62,0l-1.25-.5,1.25-.5c.84-.34,1.78-.34,2.62,0Z"/>
    <path class="cls-5" d="m6.59,15.37l1.25.5-1.25.5c-.84.34-1.78.34-2.62,0l-1.25-.5,1.25-.5c.84-.34,1.78-.34,2.62,0Z"/>
  </g>
</svg>